<svg width="24" height="24" viewBox="0 0 24 24" fill="none" xmlns="http://www.w3.org/2000/svg">
    <g clip-path="url(#clip0_31997_191)">
        <circle cx="12" cy="12" r="12" fill="#333333"/>
        <path fill-rule="evenodd" clip-rule="evenodd"
              d="M6.50246 6.31005C6.05113 6.57062 5.8965 7.14773 6.15707 7.59906L7.67487 10.228C5.87813 11.5551 4.71289 13.6881 4.71289 16.0933C4.71289 16.2064 4.71547 16.3189 4.72057 16.4308H19.2795C19.2846 16.3189 19.2872 16.2064 19.2872 16.0933C19.2872 13.4913 17.9235 11.2079 15.8718 9.91869L17.211 7.59906C17.4716 7.14773 17.317 6.57062 16.8656 6.31005C16.4143 6.04948 15.8372 6.20411 15.5766 6.65544L14.149 9.1282C13.4697 8.91886 12.748 8.80617 12 8.80617C11.0558 8.80617 10.1536 8.98574 9.32558 9.31259L7.79147 6.65544C7.5309 6.20411 6.95379 6.04948 6.50246 6.31005ZM10.3806 13.8754C10.3806 14.5462 9.83687 15.0899 9.16611 15.0899C8.49534 15.0899 7.95158 14.5462 7.95158 13.8754C7.95158 13.2046 8.49534 12.6609 9.16611 12.6609C9.83687 12.6609 10.3806 13.2046 10.3806 13.8754ZM16.0485 13.8754C16.0485 14.5462 15.5047 15.0899 14.8339 15.0899C14.1632 15.0899 13.6194 14.5462 13.6194 13.8754C13.6194 13.2047 14.1632 12.6609 14.8339 12.6609C15.5047 12.6609 16.0485 13.2047 16.0485 13.8754Z"
              fill="white"/>
    </g>
    <defs>
        <clipPath id="clip0_31997_191">
            <rect width="24" height="24" fill="white"/>
        </clipPath>
    </defs>
</svg>
